# xmcd CD database file
#
# Track frame offsets:
#	150
#	1870
#	41466
#	45085
#	82456
#	87108
#	88056
#	101453
#	105379
#	152402
#	153200
#	156189
#	176033
#	181030
#	190348
#	195224
#	216719
#	225976
#	227122
#	271444
#	276408
#
# Disc length: 3973 seconds
#
# Revision: 0
# Processed by: cddbd v1.5.2PL0 Copyright (c) Steve Scherf et al.
# Submitted via: CDex 1.70beta2
#
DISCID=020f8315
DTITLE=Frank Vaillant and Benzine - Spirea
DYEAR=2008
DGENRE=Jazz
TTITLE0=Bienvenue
TTITLE1=Madadayo
TTITLE2=Rent' Chez Toi!
TTITLE3=La Teigne
TTITLE4=? Tetrack tiarid nO
TTITLE5=Combien Sans la Clim'?
TTITLE6=Cadence
TTITLE7=Solidarite Jazz
TTITLE8=Armonia Della Sera
TTITLE9=Jesus Et Le Groupe
TTITLE10=Ostrogoths
TTITLE11=Shibuya
TTITLE12=Et Encore
TTITLE13=Spirea I
TTITLE14=Spirea II
TTITLE15=Spirea III
TTITLE16=Spirea IV
TTITLE17=Petite Roulette Folle
TTITLE18=La Nuit Des Bulgares
TTITLE19=Shazaaaam
TTITLE20=Reve General
EXTD=YEAR: 2008
EXTT0=
EXTT1=
EXTT2=
EXTT3=
EXTT4=
EXTT5=
EXTT6=
EXTT7=
EXTT8=
EXTT9=
EXTT10=
EXTT11=
EXTT12=
EXTT13=
EXTT14=
EXTT15=
EXTT16=
EXTT17=
EXTT18=
EXTT19=
EXTT20=
PLAYORDER=
